<svg id="Layer_1" data-name="Layer 1" xmlns="http://www.w3.org/2000/svg" viewBox="0 0 204.59 38.76"><defs><style>.cls-1{fill:#555655;}</style></defs><title>main-logo</title><rect class="cls-1" x="73.73" y="20.2" width="42.35" height="1" transform="translate(33.72 96.45) rotate(-64.81)"/><path class="cls-1" d="M93.88,28.63a11.24,11.24,0,0,1,.69-3.86,10.68,10.68,0,0,1,2-3.4,10.08,10.08,0,0,1,3.19-2.43,9.67,9.67,0,0,1,4.32-.93A9.2,9.2,0,0,1,109,19.3a7.94,7.94,0,0,1,3.07,3.36l-3.18,2.19a4.87,4.87,0,0,0-.93-1.51,4.75,4.75,0,0,0-1.25-1,5.66,5.66,0,0,0-1.4-.52,6.16,6.16,0,0,0-1.38-.17,5.14,5.14,0,0,0-2.58.63,5.8,5.8,0,0,0-1.84,1.63,7.33,7.33,0,0,0-1.11,2.28,9,9,0,0,0-.37,2.54,8.53,8.53,0,0,0,.44,2.71,7.31,7.31,0,0,0,1.23,2.29,6.19,6.19,0,0,0,1.91,1.59,5,5,0,0,0,2.43.6,5.8,5.8,0,0,0,1.41-.18,5.38,5.38,0,0,0,1.4-.57,5.32,5.32,0,0,0,1.25-1,4.93,4.93,0,0,0,.93-1.48l3.39,2a6.24,6.24,0,0,1-1.4,2.11,8.89,8.89,0,0,1-2.08,1.54,10.82,10.82,0,0,1-2.46,1,10.23,10.23,0,0,1-2.55.33,8.67,8.67,0,0,1-4.06-1,10.65,10.65,0,0,1-3.18-2.5A11.65,11.65,0,0,1,93.88,28.63Z" transform="translate(-2.06 -1.32)"/><path class="cls-1" d="M115.24,39.43V18.13h4.14V35.8h10.86v3.63h-15Z" transform="translate(-2.06 -1.32)"/><path class="cls-1" d="M140.92,39.58a9.17,9.17,0,0,1-4.11-.92,10.22,10.22,0,0,1-3.2-2.43,10.88,10.88,0,0,1-2.05-3.46,11.42,11.42,0,0,1-.72-4,11.21,11.21,0,0,1,2.89-7.53A10.31,10.31,0,0,1,137,18.87,9.32,9.32,0,0,1,141,18a8.94,8.94,0,0,1,4.11.95,10.35,10.35,0,0,1,3.18,2.47,11.56,11.56,0,0,1,2.76,7.44,10.94,10.94,0,0,1-.77,4.06,11.1,11.1,0,0,1-2.11,3.42A10.22,10.22,0,0,1,145,38.7,9.3,9.3,0,0,1,140.92,39.58ZM135,28.78a8.87,8.87,0,0,0,.4,2.67,7.25,7.25,0,0,0,1.17,2.28,5.87,5.87,0,0,0,1.88,1.59,5.21,5.21,0,0,0,2.52.6,5.09,5.09,0,0,0,2.54-.62,5.79,5.79,0,0,0,1.84-1.63,7.58,7.58,0,0,0,1.14-2.29,8.84,8.84,0,0,0,.39-2.6,8.6,8.6,0,0,0-.42-2.67,7.49,7.49,0,0,0-1.19-2.28,5.75,5.75,0,0,0-1.86-1.58,5.17,5.17,0,0,0-2.48-.58,5.09,5.09,0,0,0-2.54.62,6,6,0,0,0-1.86,1.62,7.21,7.21,0,0,0-1.16,2.28A8.83,8.83,0,0,0,135,28.78Z" transform="translate(-2.06 -1.32)"/><path class="cls-1" d="M166.87,23.71a5.2,5.2,0,0,0-.77-0.57,9.36,9.36,0,0,0-1.35-.71,11.74,11.74,0,0,0-1.72-.58,7.53,7.53,0,0,0-1.89-.24,4.24,4.24,0,0,0-2.55.63,2.09,2.09,0,0,0-.84,1.77,1.82,1.82,0,0,0,.31,1.09,2.75,2.75,0,0,0,.92.77,7.7,7.7,0,0,0,1.52.6q0.91,0.27,2.12.57,1.56,0.42,2.83.9a7.7,7.7,0,0,1,2.16,1.2A5,5,0,0,1,169,30.87a5.72,5.72,0,0,1,.48,2.48,6.17,6.17,0,0,1-.65,2.92,5.47,5.47,0,0,1-1.72,2,7.38,7.38,0,0,1-2.52,1.09,12.81,12.81,0,0,1-3,.35,16,16,0,0,1-4.74-.72,14.61,14.61,0,0,1-4.2-2l1.83-3.57a5.79,5.79,0,0,0,1,.71,14.82,14.82,0,0,0,1.67.87,12.86,12.86,0,0,0,2.13.73,9.62,9.62,0,0,0,2.4.3Q165,36,165,33.76a1.85,1.85,0,0,0-.39-1.2,3.33,3.33,0,0,0-1.11-.84,10.65,10.65,0,0,0-1.74-.66q-1-.3-2.28-0.63a19.42,19.42,0,0,1-2.65-.92A7.19,7.19,0,0,1,155,28.36a4.21,4.21,0,0,1-1.12-1.56,5.5,5.5,0,0,1-.37-2.13,6.61,6.61,0,0,1,.6-2.88,5.83,5.83,0,0,1,1.67-2.1,7.55,7.55,0,0,1,2.47-1.27,10.23,10.23,0,0,1,3-.44,11.77,11.77,0,0,1,4.14.71,15.48,15.48,0,0,1,3.3,1.67Z" transform="translate(-2.06 -1.32)"/><path class="cls-1" d="M187.39,35.8v3.63H172.6V18.13h14.52v3.63H176.74v5.13h9v3.36h-9V35.8h10.65Z" transform="translate(-2.06 -1.32)"/><path class="cls-1" d="M206.65,21.76h-6.78V39.43h-4.14V21.76h-6.81V18.13h17.73v3.63Z" transform="translate(-2.06 -1.32)"/><path class="cls-1" d="M16.19,6a7.45,7.45,0,0,0-5.85-2.31A7.07,7.07,0,0,0,5.8,4.92,3.94,3.94,0,0,0,4.37,8.12a3.66,3.66,0,0,0,.36,1.71A3,3,0,0,0,5.86,11a8.17,8.17,0,0,0,1.95.81q1.19,0.34,2.81.67a32.13,32.13,0,0,1,3.12.79,9.05,9.05,0,0,1,2.35,1.09A4.64,4.64,0,0,1,17.59,16a4.89,4.89,0,0,1,.52,2.37,5.19,5.19,0,0,1-.56,2.46A5,5,0,0,1,16,22.56a7.32,7.32,0,0,1-2.4,1.07,12.46,12.46,0,0,1-3.1.36,12,12,0,0,1-8.43-3.18l0.81-1.23a9.76,9.76,0,0,0,3.3,2.24,11.12,11.12,0,0,0,4.38.83,8,8,0,0,0,4.37-1,3.43,3.43,0,0,0,1.57-3.09,3.66,3.66,0,0,0-.4-1.79,3.6,3.6,0,0,0-1.25-1.27,8.61,8.61,0,0,0-2.08-.93q-1.25-.39-2.92-0.75t-3-.77a8.18,8.18,0,0,1-2.21-1,4.06,4.06,0,0,1-1.35-1.49,4.74,4.74,0,0,1-.45-2.19,5.63,5.63,0,0,1,.55-2.55A5.4,5.4,0,0,1,4.91,3.9,6.89,6.89,0,0,1,7.28,2.75a11.24,11.24,0,0,1,3.06-.39A10.34,10.34,0,0,1,14,3,8.71,8.71,0,0,1,17,4.85Z" transform="translate(-2.06 -1.32)"/><path class="cls-1" d="M22.07,23.81V2.51h8.76a5.5,5.5,0,0,1,2.49.57,6.37,6.37,0,0,1,2,1.52,7.24,7.24,0,0,1,1.29,2.13A6.49,6.49,0,0,1,37,9.11a7.26,7.26,0,0,1-.44,2.49,6.82,6.82,0,0,1-1.23,2.13,6.08,6.08,0,0,1-1.89,1.49,5.33,5.33,0,0,1-2.44.55H23.6v8H22.07Zm1.53-9.45H31a4,4,0,0,0,1.89-.43,4.37,4.37,0,0,0,1.43-1.17,5.44,5.44,0,0,0,.9-1.68,6.17,6.17,0,0,0,.31-2,5.36,5.36,0,0,0-.37-2,5.55,5.55,0,0,0-1-1.67,4.91,4.91,0,0,0-1.5-1.14,4.06,4.06,0,0,0-1.81-.42H23.6V14.36Z" transform="translate(-2.06 -1.32)"/><path class="cls-1" d="M37.1,23.81l9.06-21.3h1.26l9.06,21.3H54.83l-3-7H41.69l-3,7H37.1ZM46.79,4.37L42.05,15.53h9.39Z" transform="translate(-2.06 -1.32)"/><path class="cls-1" d="M59.81,23.81V2.51h8.88a5.5,5.5,0,0,1,2.49.57,6.2,6.2,0,0,1,2,1.52,7.41,7.41,0,0,1,1.27,2.13,6.49,6.49,0,0,1,.46,2.38,7.22,7.22,0,0,1-.36,2.27,6.7,6.7,0,0,1-1,2,5.75,5.75,0,0,1-1.59,1.44,5.56,5.56,0,0,1-2,.75l5.31,8.28H73.4l-5.16-8h-6.9v8H59.81Zm1.53-9.45h7.47a3.87,3.87,0,0,0,1.86-.45,4.72,4.72,0,0,0,1.44-1.18A5.26,5.26,0,0,0,73,11a6.08,6.08,0,0,0,.31-1.94,5.29,5.29,0,0,0-.37-2,5.55,5.55,0,0,0-1-1.67,5.12,5.12,0,0,0-1.5-1.16,4,4,0,0,0-1.85-.43H61.34V14.36Z" transform="translate(-2.06 -1.32)"/><path class="cls-1" d="M93.68,22.43v1.38H79.49V2.51H93.41V3.89H81v8.37H91.85v1.32H81v8.85H93.68Z" transform="translate(-2.06 -1.32)"/></svg>