<svg id="Layer_1" data-name="Layer 1" xmlns="http://www.w3.org/2000/svg" viewBox="0 0 34.59 38.76"><defs><style>.cls-1{fill:#f9aa87;}</style></defs><title>favicon</title><rect class="cls-1" x="-3.27" y="20.2" width="42.35" height="1" transform="translate(-9.28 26.78) rotate(-64.81)"/><path class="cls-1" d="M16.88,28.63a11.24,11.24,0,0,1,.69-3.86,10.68,10.68,0,0,1,2-3.4,10.08,10.08,0,0,1,3.19-2.43A9.67,9.67,0,0,1,27.08,18,9.2,9.2,0,0,1,32,19.3a7.94,7.94,0,0,1,3.07,3.36l-3.18,2.19A4.87,4.87,0,0,0,31,23.34a4.75,4.75,0,0,0-1.25-1,5.66,5.66,0,0,0-1.4-.52A6.16,6.16,0,0,0,27,21.67a5.14,5.14,0,0,0-2.58.63,5.8,5.8,0,0,0-1.84,1.63,7.33,7.33,0,0,0-1.11,2.28,9,9,0,0,0-.37,2.54,8.53,8.53,0,0,0,.44,2.71,7.31,7.31,0,0,0,1.23,2.29,6.19,6.19,0,0,0,1.91,1.59,5,5,0,0,0,2.43.6,5.8,5.8,0,0,0,1.41-.18,5.38,5.38,0,0,0,1.4-.57,5.32,5.32,0,0,0,1.25-1A4.93,4.93,0,0,0,32,32.71l3.39,2A6.24,6.24,0,0,1,34,36.78a8.89,8.89,0,0,1-2.08,1.54,10.82,10.82,0,0,1-2.46,1,10.23,10.23,0,0,1-2.55.33,8.67,8.67,0,0,1-4.06-1,10.65,10.65,0,0,1-3.18-2.5A11.65,11.65,0,0,1,16.88,28.63Z" transform="translate(-0.83 -1.32)"/><path class="cls-1" d="M15,6A7.45,7.45,0,0,0,9.11,3.74,7.07,7.07,0,0,0,4.57,4.92,3.94,3.94,0,0,0,3.14,8.12,3.66,3.66,0,0,0,3.5,9.83,3,3,0,0,0,4.63,11a8.17,8.17,0,0,0,1.95.81q1.19,0.34,2.81.67a32.13,32.13,0,0,1,3.12.79,9.05,9.05,0,0,1,2.35,1.09A4.64,4.64,0,0,1,16.36,16a4.89,4.89,0,0,1,.52,2.37,5.19,5.19,0,0,1-.56,2.46,5,5,0,0,1-1.56,1.75,7.32,7.32,0,0,1-2.4,1.07,12.46,12.46,0,0,1-3.1.36A12,12,0,0,1,.83,20.81l0.81-1.23a9.76,9.76,0,0,0,3.3,2.24,11.12,11.12,0,0,0,4.38.83,8,8,0,0,0,4.37-1,3.43,3.43,0,0,0,1.57-3.09,3.66,3.66,0,0,0-.4-1.79,3.6,3.6,0,0,0-1.25-1.27,8.61,8.61,0,0,0-2.08-.93q-1.25-.39-2.92-0.75t-3-.77a8.18,8.18,0,0,1-2.21-1A4.06,4.06,0,0,1,2,10.52a4.74,4.74,0,0,1-.45-2.19,5.63,5.63,0,0,1,.55-2.55A5.4,5.4,0,0,1,3.68,3.9,6.89,6.89,0,0,1,6.05,2.75a11.24,11.24,0,0,1,3.06-.39A10.34,10.34,0,0,1,12.8,3a8.71,8.71,0,0,1,2.94,1.88Z" transform="translate(-0.83 -1.32)"/></svg>